<svg width="180" height="180" viewBox="0 0 180 180" fill="none" xmlns="http://www.w3.org/2000/svg">
<rect width="180" height="180" fill="#121212"/>
<circle cx="90" cy="90" r="78" stroke="url(#paint0_linear_42_38)" stroke-width="4"/>
<path d="M62 97.0581C62 79.1889 74.7599 53 90.5 53C106.24 53 119 79.1889 119 97.0581C119 114.927 106.24 97.058 90.5 97.058C74.7599 97.058 62 114.927 62 97.0581Z" fill="url(#paint1_linear_42_38)"/>
<path d="M32 113.058C32 95.1889 43.6406 69 58 69C72.3594 69 84 95.1889 84 113.058C84 130.927 72.3594 113.058 58 113.058C43.6406 113.058 32 130.927 32 113.058Z" fill="url(#paint2_linear_42_38)"/>
<path d="M47 123.058C47 105.189 58.6406 79 73 79C87.3594 79 99 105.189 99 123.058C99 140.927 87.3594 123.058 73 123.058C58.6406 123.058 47 140.927 47 123.058Z" fill="url(#paint3_linear_42_38)"/>
<path d="M95 109.058C95 91.1889 106.641 65 121 65C135.359 65 147 91.1889 147 109.058C147 126.927 135.359 109.058 121 109.058C106.641 109.058 95 126.927 95 109.058Z" fill="url(#paint4_linear_42_38)"/>
<path d="M160 90C160 128.66 128.66 160 90 160C51.3401 160 20 128.66 20 90C20 51.3401 51.3401 96.5 90 96.5C128.66 96.5 160 51.3401 160 90Z" fill="url(#paint5_linear_42_38)"/>
<defs>
<linearGradient id="paint0_linear_42_38" x1="90" y1="10" x2="90" y2="170" gradientUnits="userSpaceOnUse">
<stop offset="0.168269" stop-color="#23EEB2"/>
<stop offset="0.586538" stop-color="#148866"/>
</linearGradient>
<linearGradient id="paint1_linear_42_38" x1="91.1064" y1="52.6811" x2="91.1064" y2="135.978" gradientUnits="userSpaceOnUse">
<stop stop-color="#23EEB2"/>
<stop offset="0.416479" stop-color="#1AA47B"/>
</linearGradient>
<linearGradient id="paint2_linear_42_38" x1="58.5532" y1="68.6811" x2="79.5" y2="109.5" gradientUnits="userSpaceOnUse">
<stop stop-color="#23EEB2"/>
<stop offset="0.416479" stop-color="#1AA47B"/>
</linearGradient>
<linearGradient id="paint3_linear_42_38" x1="73.5532" y1="78.6811" x2="75.5" y2="118" gradientUnits="userSpaceOnUse">
<stop stop-color="#23EEB2"/>
<stop offset="0.416479" stop-color="#1AA47B"/>
</linearGradient>
<linearGradient id="paint4_linear_42_38" x1="121.553" y1="64.6811" x2="125" y2="125.5" gradientUnits="userSpaceOnUse">
<stop stop-color="#23EEB2"/>
<stop offset="0.416479" stop-color="#1AA47B"/>
</linearGradient>
<linearGradient id="paint5_linear_42_38" x1="90" y1="74.3549" x2="90" y2="160" gradientUnits="userSpaceOnUse">
<stop offset="0.0797696" stop-color="#23EEB2"/>
<stop offset="0.579313" stop-color="#117557"/>
<stop offset="0.857609" stop-color="#0B4F3B"/>
</linearGradient>
</defs>
</svg>
