<svg width="68" height="68" viewBox="0 0 68 68" fill="none" xmlns="http://www.w3.org/2000/svg">
<circle cx="34" cy="34" r="34" fill="url(#paint0_linear_125_4)"/>
<path d="M27.9832 43.475V50H24.0682C21.2782 50 19.1032 49.325 17.5432 47.975C15.9832 46.595 15.2032 44.36 15.2032 41.27V31.28H12.1432V24.89H15.2032V18.77H22.8982V24.89H27.9382V31.28H22.8982V41.36C22.8982 42.11 23.0782 42.65 23.4382 42.98C23.7982 43.31 24.3982 43.475 25.2382 43.475H27.9832ZM47.5695 24.62C50.5095 24.62 52.8495 25.58 54.5895 27.5C56.3595 29.39 57.2445 32 57.2445 35.33V50H49.5945V36.365C49.5945 34.685 49.1595 33.38 48.2895 32.45C47.4195 31.52 46.2495 31.055 44.7795 31.055C43.3095 31.055 42.1395 31.52 41.2695 32.45C40.3995 33.38 39.9645 34.685 39.9645 36.365V50H32.2695V24.89H39.9645V28.22C40.7445 27.11 41.7945 26.24 43.1145 25.61C44.4345 24.95 45.9195 24.62 47.5695 24.62Z" fill="url(#paint1_linear_125_4)"/>
<defs>
<linearGradient id="paint0_linear_125_4" x1="34" y1="0" x2="34" y2="68" gradientUnits="userSpaceOnUse">
<stop offset="0.46" stop-color="#265B91"/>
<stop offset="1" stop-color="#0B1B2B"/>
</linearGradient>
<linearGradient id="paint1_linear_125_4" x1="35.5" y1="0" x2="35.5" y2="68" gradientUnits="userSpaceOnUse">
<stop offset="0.385" stop-color="white"/>
<stop offset="1" stop-color="#999999"/>
</linearGradient>
</defs>
</svg>
